<svg width="720" height="70" viewBox="0 0 720 70" fill="none" xmlns="http://www.w3.org/2000/svg">
<path d="M30 9.99988L10 59.9999H30L50 9.99988H30Z" fill="rgb(225 29 72)" stroke="rgb(225 29 72)"/>
<path d="M90 10L70 60H90L110 10H90Z" fill="rgb(225 29 72)" stroke="rgb(225 29 72)"/>
<path d="M60 10L40 60H60L80 10H60Z" fill="rgb(225 29 72)" stroke="rgb(225 29 72)"/>
<path d="M120 10L100 60H120L140 10H120Z" fill="rgb(225 29 72)" stroke="rgb(225 29 72)"/>
<path d="M180 10L160 60H180L200 10H180Z" fill="rgb(225 29 72)" stroke="rgb(225 29 72)"/>
<path d="M150 10L130 60H150L170 10H150Z" fill="rgb(225 29 72)" stroke="rgb(225 29 72)"/>
<path d="M570 10L550 60H570L590 10H570Z" fill="rgb(225 29 72)" stroke="rgb(225 29 72)"/>
<path d="M630 10L610 60H630L650 10H630Z" fill="rgb(225 29 72)" stroke="rgb(225 29 72)"/>
<path d="M600 10L580 60H600L620 10H600Z" fill="rgb(225 29 72)" stroke="rgb(225 29 72)"/>
<path d="M660 10L640 60H660L680 10H660Z" fill="rgb(225 29 72)" stroke="rgb(225 29 72)"/>
<path d="M690 10L670 60H690L710 10H690Z" fill="rgb(225 29 72)" stroke="rgb(225 29 72)"/>
<path d="M390 10L370 60H390L410 10H390Z" fill="rgb(225 29 72)" stroke="rgb(225 29 72)"/>
<path d="M450 10L430 60H450L470 10H450Z" fill="rgb(225 29 72)" stroke="rgb(225 29 72)"/>
<path d="M420 10L400 60H420L440 10H420Z" fill="rgb(225 29 72)" stroke="rgb(225 29 72)"/>
<path d="M480 10L460 60H480L500 10H480Z" fill="rgb(225 29 72)" stroke="rgb(225 29 72)"/>
<path d="M540 10L520 60H540L560 10H540Z" fill="rgb(225 29 72)" stroke="rgb(225 29 72)"/>
<path d="M510 10L490 60H510L530 10H510Z" fill="rgb(225 29 72)" stroke="rgb(225 29 72)"/>
<path d="M210 10L190 60H210L230 10H210Z" fill="rgb(225 29 72)" stroke="rgb(225 29 72)"/>
<path d="M270 10L250 60H270L290 10H270Z" fill="rgb(225 29 72)" stroke="rgb(225 29 72)"/>
<path d="M240 10L220 60H240L260 10H240Z" fill="rgb(225 29 72)" stroke="rgb(225 29 72)"/>
<path d="M300 10L280 60H300L320 10H300Z" fill="rgb(225 29 72)" stroke="rgb(225 29 72)"/>
<path d="M360 10L340 60H360L380 10H360Z" fill="rgb(225 29 72)" stroke="rgb(225 29 72)"/>
<path d="M330 10L310 60H330L350 10H330Z" fill="rgb(225 29 72)" stroke="rgb(225 29 72)"/>
<path d="M700 60H710V30.5L700 60Z" fill="rgb(225 29 72)" stroke="rgb(225 29 72)"/>
<path d="M20 10H10L10 39.5L20 10Z" fill="rgb(225 29 72)" stroke="rgb(225 29 72)"/>
</svg>
