<svg width="174" height="251" viewBox="0 0 174 251" fill="none" xmlns="http://www.w3.org/2000/svg">
<path d="M165 16H150V47H165V16Z" fill="white"/>
<path d="M150 1H24.5V16H150V1Z" fill="white"/>
<path d="M173 47H165V94H173V47Z" fill="white"/>
<path d="M165 126V94H150V126H165Z" fill="white"/>
<path d="M150 235V126H134V173V235H150Z" fill="white"/>
<path d="M134 250V235H40V250H134Z" fill="white"/>
<path d="M25 235H40V173V125H25V235Z" fill="white"/>
<path d="M9 125H25V94H9V125Z" fill="white"/>
<path d="M1 94H9V47.5H1V94Z" fill="white"/>
<path d="M9 16V47.5H24.5V16H9Z" fill="white"/>
<path d="M24.5 47.5H9V94H25H150H165V47H150L87.25 47.25L24.5 47.5Z" fill="white"/>
<path d="M150 16V1H24.5V16M150 16H165V47M150 16H24.5M150 16V47M165 47H173V94H165M165 47V94M165 47H150M165 94V126H150M165 94H150M150 126V235H134M150 126H134V173M150 126V94M134 235V250H40V235M134 235H40M134 235V173M40 235H25V125M40 235V173M25 125H9V94M25 125V94M25 125H40V173M9 94H1V47.5H9M9 94V47.5M9 94H25M9 47.5V16H24.5M9 47.5H24.5M24.5 16V47.5M24.5 47.5L87.25 47.25L150 47M25 94H150M134 173H40" stroke="white"/>
</svg>
